<svg id="Capa_1" data-name="Capa 1" xmlns="http://www.w3.org/2000/svg" viewBox="0 0 541.44 192.38"><defs><style>.cls-1,.cls-2{fill:#36422a;}.cls-1{fill-rule:evenodd;}</style></defs><path class="cls-1" d="M200.49,172.8h88.79C269.52,136.55,245.85,97.47,225.1,61l-10-17.27-4.87-8.62-6.95-12.3-.61,1.07,0,0c0,.08,0,.16-.08.25l-6.22,11-7,12.31h.06c-2.72,4.65-5.42,9.24-8,13.82L159.8,98.66c-2.12,3.83.15,5.29,2.45,9.32l26.8,46.28c1.7,3.09,3.63,6.24,5.35,9.3,1.51,2.68,4.11,8.16,6.09,9.24M77.54,50.48C54.42,90,27.76,133.79,6,174c-1.71,3.16-1,7.13,2.79,7.52s4.64-2.52,6.13-5c5.8-9.74,11.26-19.37,17.14-29.66,10.12-17.73,20.59-35.25,30.58-53L103.44,24l43.21,74.52c6.11,10.73,38.17,64.85,42.55,74.32l-81.46-.3.09-26c2.9,3.75,7,11.45,9.36,15.86,1.63,3,5.18,5.05,7.92,1.53,2.31-3-.5-6.35-1.9-8.72-3.09-5.24-6.22-10.88-9.36-16.36-4.19-7.28-7.12-8.85-6-19.17,5.76,7,11.3,25.6,17.3,17.35,2.29-3.14-.37-6.12-1.91-8.72-3.13-5.3-6.12-10.78-9.39-16.34-4.19-7.14-7-9-6-19.16,4.17,3.52,10.31,25.21,17,17.65,2.44-2.78.09-6-1.21-8.3L109.72,78.08c-1.4-2.36-2.69-6.32-5.76-6.62-4.21-.41-4.88,3.13-6.74,6.08l-13.76,23.7c-7.36,11.73,2.66,13,5.9,7.61,3-5,5.73-11.72,9.47-15.86.25,5.26.81,7.42-1.66,11.4l-13.7,23.72c-1.52,2.65-4.36,6.13-2,9.19,2.25,2.9,6.1,1.44,7.85-1.58,1.62-2.79,3.15-5.5,4.62-8.2l4.92-7.69c0,10.56.43,7.58-4.05,15.53-2.31,4.09-4.79,8.41-7,12.15A92.35,92.35,0,0,1,82,157.63c-2.61,4.26-.83,9.11,4.18,7.66,2.62-.76,4.76-6.12,6.59-9.09s3.87-7.72,6.26-9.66c1.17,31.22-5,35.23,9.07,35.06,43.25-.51,88.08,0,131.55,0,18.7,0,40.6,1.05,58.89-.19,6.93-3.21-1.06-11.93-7-22.64L251.79,89.52,239.84,69c-3.91-6.9-7.76-13.26-12-20.75-4-7-8-14.26-11.93-20.78-2.09-3.43-4-7-6-10.36-1.9-3.13-3.5-8.38-8.35-6.58-2.24.83-11,17.19-12.64,20.13-3.71,6.58-34.07,59.63-35.75,61.15-1.82-2.47-3.22-5.43-4.73-8l-13.46-23.4c-7.52-13-20-35.83-27.4-47.39-5.29-8.33-9.84,2.34-12.24,6.46Z"/><path class="cls-2" d="M363.22,61h-9.58l-.15-.64a4.68,4.68,0,0,0,.19-1.67,73,73,0,0,0-1-9.44q-1-6.57-2.7-15.16c-.66-3.18-1.38-6-2.18-8.62s-1.54-4.85-2.25-6.87c-.53-1.48-1-2.85-1.36-4.08l-.57,1.85q-2.23,7.13-4.92,17.38-2.53,10.36-3.86,17.67,2.61,8.94,3.78,8.94h0l.15.64h-9.95l.19-.64a.13.13,0,0,1,.07-.12,5.3,5.3,0,0,0,.15-1.51q0-5.79-3.67-24.64-1-4.77-2.16-8.6t-2.27-6.89l-1.36-4.08-.57,1.85q-2.24,7.13-4.92,17.38-2.39,9.64-3.67,16.8a70.51,70.51,0,0,0-1.29,9.16c0,.41,0,.62.11.65l-.15.64h-4.84l.19-.64q.68-.57,3.12-7.56t5.24-17.77q1.81-7.34,2.82-13.64c.67-4.21,1.13-7.63,1.38-10.28l.38-3.94h8.48l.68,5q.65,5,1.76,11.74T331,36.61q1.36,5.8,2.8,11.17c1.17-3.76,2.36-8,3.6-12.72q1.81-7.34,2.8-13.64c.66-4.21,1.11-7.63,1.36-10.28L342,7.2h8.52l.23.61c0,.55,0,1.12,0,1.7a62.37,62.37,0,0,0,1.38,12.32q1.38,6.8,3.35,14.78,1.36,5.8,2.8,11.21c1,3.61,1.87,6.6,2.73,9s1.54,3.58,2,3.58h0Z"/><path class="cls-2" d="M398.08,61.67a27.35,27.35,0,0,1-22.9-12.51A27.42,27.42,0,0,1,370.64,34a27.93,27.93,0,0,1,1.93-10.1,26.89,26.89,0,0,1,10.18-12.53,26.6,26.6,0,0,1,14.88-4.51,27.87,27.87,0,0,1,10.33,2,27.82,27.82,0,0,1,17.15,25.66,28,28,0,0,1-1.93,10.11A27,27,0,0,1,413,57.17,26.64,26.64,0,0,1,398.08,61.67Zm-2.95-1.62a21.89,21.89,0,0,0,13.27-4.7,29.77,29.77,0,0,0,9.67-12.83,31.7,31.7,0,0,0,2.19-11.32,25.58,25.58,0,0,0-3.33-13,19.48,19.48,0,0,0-9.35-8.43,19,19,0,0,0-7-1.36,21.81,21.81,0,0,0-13.25,4.7A29.68,29.68,0,0,0,377.68,26a32,32,0,0,0-2.2,11.35,25.71,25.71,0,0,0,3.32,13,19.12,19.12,0,0,0,9.36,8.38A18.8,18.8,0,0,0,395.13,60.05Z"/><path class="cls-2" d="M435.86,61.18l-3.07,0,.42-7.11q.45-7.08.64-19.84V32q0-6.88-.32-12.53t-.66-9l-.34-3.33h5.3q3,7.95,12,24.46,3.66,6.61,6.85,11.92,0-2.61.26-6.4c.28-4.46.42-9.49.42-15.06q0-6.66-.19-10.79L457,7.2h2.84l-.49,7.54q-.47,7.56-.76,18l0,2.46q0,5,.32,11.1c.22,4,.44,7.52.67,10.44l.3,4.39h-2.8L457,59a31,31,0,0,0-.23-3.26Q453.13,47.41,445.74,34q-5.91-10.63-10.37-17.6-.08,3.26-.08,7.46,0,4.77-.11,10.37-.07,3.48-.08,6.59,0,9.34.38,14.88Z"/><path class="cls-2" d="M485.34,61.18h-8.82V60.5q.94-.3,1.57-7.67t.62-18.41q0-10.19-.55-17.32t-1.38-8.53q-12.67.25-12.68.6h-.46V7.24h.46q.82.38,11.81.38l8.18-.08q13.1-.08,13.62-.38h.46l0,1.71h-.46c0-.2-3.42-.32-10.26-.34h-2.38c-.58.81-1.06,3.6-1.42,8.38s-.55,10.62-.55,17.51q0,11.05.64,18.57t1.56,7.51Z"/><path class="cls-2" d="M528,61h-.23q-.19-.35-9.84-.45c-1.94,0-4,0-6.32.11L502,61v-.68l.19-.08q.94-1,1.55-8.31t.61-17.88q0-11.1-.68-18.51c-.46-5-1-7.52-1.67-7.72V7.16l2.76.12c1.85.07,4,.15,6.4.22s4.67.12,6.74.12q9.65-.12,9.84-.46H528V9h-.23c0-.12-.9-.23-2.69-.32s-4-.13-6.62-.13q-6.58,0-7.65.34-1.36,4.8-1.66,20.7,4.65.12,5.94.12c5.27,0,7.94-.15,8-.46h.22v1.82H523c0-.28-2.67-.43-8-.45q-3.4,0-5.94.07l0,3.41q0,2.12.53,11.81.57,10.86,1.13,13.29l0,.15a44.52,44.52,0,0,0,7.65.34q3.93,0,6.62-.15a9.1,9.1,0,0,0,2.69-.31H528Z"/><path class="cls-2" d="M339.82,138.53a33.94,33.94,0,0,1-17.73-4.8,36.36,36.36,0,0,1-12.81-12.86,35.71,35.71,0,0,1,0-35.66,36.42,36.42,0,0,1,12.81-12.85,35.29,35.29,0,0,1,33.09-1.3,35.61,35.61,0,0,1,12,9.52l-4,3.34a31.08,31.08,0,0,0-9.94-11,24.09,24.09,0,0,0-27.51.56A32.69,32.69,0,0,0,315.48,85.9a40.5,40.5,0,0,0,0,34.34,32.66,32.66,0,0,0,10.21,12.36,24,24,0,0,0,27.31.67,30.91,30.91,0,0,0,9.9-10.66l3.91,3.33a36,36,0,0,1-11.9,9.21A34.1,34.1,0,0,1,339.82,138.53Z"/><path class="cls-2" d="M384.3,137.4H372.06v-.83q1.26-.39,2.15-10t.88-24q0-14.35-.88-24t-2.15-10v-.88H384.3v.88c-.85,0-1.57,3.26-2.18,9.77s-.9,14.58-.9,24.18.3,17.71.9,24.22,1.33,9.77,2.18,9.77Z"/><path class="cls-2" d="M422.8,137.4h-.29q-.25-.43-12.74-.58-3.76,0-8.18.14l-12.39.44v-.88l.24-.09q1.23-1.34,2-10.76t.79-23.14q0-14.36-.88-24t-2.16-10V67.7l3.58.15q3.57.15,8.27.29c3.14.1,6,.15,8.72.15q12.5-.15,12.74-.59h.29v2.35h-.29c0-.16-1.16-.3-3.48-.41s-5.18-.17-8.57-.17c-5.68,0-9,.14-9.9.44q-1.76,6.21-2.15,26.79,6,.15,7.69.15c6.82,0,10.27-.2,10.33-.59h.3v2.35h-.3c0-.36-3.44-.55-10.33-.59-2.94,0-5.5,0-7.69.1l-.05,4.41q0,2.75.69,15.28.74,14.06,1.47,17.19l0,.2q1.38.44,9.9.44,5.09,0,8.57-.19c2.32-.13,3.48-.27,3.48-.4h.29Z"/><path class="cls-2" d="M461.3,137.45H461q-.24-.44-12.74-.58c-2.67,0-5.58,0-8.72.14s-5.89.2-8.27.3l-3.58.14v-.88q1.28-.39,2.16-10t.88-24q0-14.35-.88-24t-2.16-10v-.88H440v.88q-1.27,0-2.18,9.75t-.91,24.2q0,2.83.69,15.57.78,14.41,1.51,17.1a84.41,84.41,0,0,0,10.14.44,47.14,47.14,0,0,0,8.82-.61c2-.41,3-.7,3-.86h.29Z"/><path class="cls-2" d="M493,138.24a35.87,35.87,0,0,1-35.51-35.86A36.25,36.25,0,0,1,460,89.3a34.86,34.86,0,0,1,13.18-16.21,34.31,34.31,0,0,1,19.25-5.83,36.14,36.14,0,0,1,13.37,2.65A36,36,0,0,1,528,103.12a36.25,36.25,0,0,1-2.5,13.08,34.86,34.86,0,0,1-13.18,16.21A34.4,34.4,0,0,1,493,138.24Zm-3.82-2.11a28.3,28.3,0,0,0,17.17-6.07,38.55,38.55,0,0,0,12.52-16.61,40.94,40.94,0,0,0,2.84-14.64A33.15,33.15,0,0,0,517.38,82a25.25,25.25,0,0,0-12.1-10.9,24.53,24.53,0,0,0-9.06-1.76,28.2,28.2,0,0,0-17.15,6.07,38.65,38.65,0,0,0-12.49,16.61,41.32,41.32,0,0,0-2.84,14.69A33.26,33.26,0,0,0,468,123.52a24.79,24.79,0,0,0,12.12,10.85A24.44,24.44,0,0,0,489.16,136.13Z"/><path class="cls-2" d="M325.07,182.59a18.73,18.73,0,0,1-9.84-2.67,20.29,20.29,0,0,1-7.09-7.17,20,20,0,0,1,0-19.89,20.18,20.18,0,0,1,7.09-7.16,18.81,18.81,0,0,1,9.84-2.66,19.09,19.09,0,0,1,7.09,1.33,19.61,19.61,0,0,1,6,3.73l-2.25,1a16.16,16.16,0,0,0-4.91-3.91,12.81,12.81,0,0,0-5.91-1.41,13.09,13.09,0,0,0-7.85,2.58,18.14,18.14,0,0,0-5.66,6.9,22.73,22.73,0,0,0,0,19.13,18,18,0,0,0,5.66,6.9,13.15,13.15,0,0,0,7.85,2.57,12.81,12.81,0,0,0,7-2.09,18.66,18.66,0,0,0,5.55-5.57,21,21,0,0,0,3.1-7.77l-4.56-.11q-4.92-.16-8.83-.16c-2.23,0-4.12.07-5.68.22l.06-1.66a41,41,0,0,0,9.75,1,70.6,70.6,0,0,0,9.07-.52,19.11,19.11,0,0,0,4-.68h0a3.38,3.38,0,0,0-.06.6l0,.11a15.17,15.17,0,0,1-.41,2.28,19.91,19.91,0,0,1-10.47,13.13A18.72,18.72,0,0,1,325.07,182.59Z"/><path class="cls-2" d="M366,182h-.17q-.14-.24-7.06-.33c-1.48,0-3.1,0-4.83.08s-3.27.11-4.59.17l-2,.08v-.49c.47-.15.87-2,1.2-5.54s.49-8,.49-13.31-.17-9.74-.49-13.29-.73-5.39-1.2-5.54v-.49h6.79v.49c-.47,0-.87,1.81-1.21,5.41s-.5,8.08-.5,13.42q0,1.58.38,8.64a71.2,71.2,0,0,0,.85,9.48,50.48,50.48,0,0,0,5.62.24,26,26,0,0,0,4.89-.34c1.1-.23,1.65-.38,1.65-.47H366Z"/><path class="cls-2" d="M393.39,181.94h-6.87l-.11-.46a3.41,3.41,0,0,0,.14-1.2,63.25,63.25,0,0,0-.93-8.33h-12a70.61,70.61,0,0,0-1.38,9.07c0,.29,0,.44.08.46l-.11.46h-3.48l.14-.46c.33-.27,1.07-2.08,2.24-5.42s2.42-7.59,3.76-12.75q1.8-7.29,2.57-12.38a57.26,57.26,0,0,0,.77-6.53l-.05-1.09h6.08a12.85,12.85,0,0,0-.1,1.63,37,37,0,0,0,.81,7.35c.54,2.66,1.2,5.53,2,8.63l.85,3.5q1,4.16,2,8t2,6.45c.6,1.71,1.1,2.57,1.48,2.57h0Zm-8-11.19a115.07,115.07,0,0,0-3.09-14.34q-.85-2.78-1.63-5c-.37-1-.68-2-.95-2.86l-.22.68q-1.67,5.22-3.72,13.12-1.12,4.55-1.93,8.37Z"/><path class="cls-2" d="M438.24,181.94h-6.87l-.11-.46a3.48,3.48,0,0,0,.13-1.2,53.35,53.35,0,0,0-.69-6.77q-.69-4.71-1.94-10.88-.7-3.42-1.56-6.18t-1.62-4.93c-.38-1.07-.71-2.05-1-2.94l-.4,1.33q-1.6,5.11-3.54,12.47c-1.21,5-2.13,9.19-2.77,12.69q1.88,6.41,2.72,6.41h0l.11.46H413.6l.14-.46a.09.09,0,0,1,.05-.08,3.92,3.92,0,0,0,.11-1.09q0-4.16-2.63-17.68c-.48-2.28-1-4.34-1.55-6.17s-1.11-3.48-1.63-4.94l-1-2.94-.41,1.33q-1.6,5.11-3.53,12.47-1.71,6.93-2.63,12.06a50.46,50.46,0,0,0-.93,6.58c0,.29,0,.44.08.46l-.1.46h-3.48l.13-.46q.5-.4,2.24-5.42t3.77-12.75c.87-3.52,1.54-6.78,2-9.8s.81-5.47,1-7.37l.27-2.83h6.09l.49,3.56c.31,2.38.73,5.18,1.26,8.42s1.13,6.29,1.78,9.13,1.32,5.44,2,8c.83-2.69,1.69-5.74,2.58-9.12s1.54-6.78,2-9.8.8-5.47,1-7.37l.27-2.83h6.11l.17.44c0,.4,0,.8,0,1.22a44.74,44.74,0,0,0,1,8.84q1,4.88,2.4,10.61,1,4.16,2,8t2,6.45c.62,1.71,1.1,2.57,1.47,2.57h0Z"/><path class="cls-2" d="M447.56,181.94H441v-.46c.48-.15.89-2,1.22-5.54s.49-8,.49-13.31-.17-9.74-.49-13.29-.74-5.39-1.22-5.54v-.49h8.55a10.65,10.65,0,0,1,5.58,1.5,11.17,11.17,0,0,1,4,4,11,11,0,0,1,.16,10.83,11.19,11.19,0,0,1-8.63,5.78c-1.51,0-3,0-4.54,0q.07,6.36.45,11.14c.24,3.18.56,4.78,1,4.78Zm1.16-17.33a6.31,6.31,0,0,0,4-1.4,9.87,9.87,0,0,0,2.87-3.73,13,13,0,0,0,0-10.33,9.87,9.87,0,0,0-2.87-3.73,6.31,6.31,0,0,0-4-1.4h-1.24q-.6,1.2-1,6.3t-.41,12.31v2Z"/><path class="cls-2" d="M470.1,181.94h-6.79v-.46c.47-.15.87-2,1.2-5.54s.49-8,.49-13.31-.17-9.74-.49-13.29-.73-5.39-1.2-5.54v-.49h6.79v.49q-.71,0-1.21,5.42t-.5,13.41q0,8,.5,13.43t1.21,5.42Z"/><path class="cls-2" d="M475.21,182.05l-2.2,0,.3-5.1q.33-5.08.46-14.24v-1.55q0-4.94-.23-9c-.16-2.7-.31-4.84-.48-6.44l-.24-2.39h3.8a161.19,161.19,0,0,0,8.64,17.55q2.64,4.75,4.92,8.56c0-1.25.06-2.78.19-4.59q.3-4.82.3-10.81,0-4.78-.14-7.74l-.14-3h2l-.35,5.41q-.33,5.43-.55,12.93l0,1.77c0,2.4.07,5.06.23,8s.31,5.4.47,7.5l.22,3.15h-2l0-1.55a21.43,21.43,0,0,0-.16-2.33q-2.64-6-7.93-15.62-4.24-7.64-7.44-12.63c0,1.56-.06,3.34-.06,5.35q0,3.42-.08,7.44c0,1.67-.05,3.24-.05,4.73q0,6.71.27,10.67Z"/><path class="cls-2" d="M514.73,182.59a18.73,18.73,0,0,1-9.84-2.67,20.29,20.29,0,0,1-7.09-7.17,20,20,0,0,1,0-19.89,20.18,20.18,0,0,1,7.09-7.16,18.81,18.81,0,0,1,9.84-2.66,19.09,19.09,0,0,1,7.09,1.33,19.61,19.61,0,0,1,6,3.73l-2.26,1a16,16,0,0,0-4.9-3.91,12.81,12.81,0,0,0-5.91-1.41,13.07,13.07,0,0,0-7.85,2.58,18.14,18.14,0,0,0-5.66,6.9,22.73,22.73,0,0,0,0,19.13,18,18,0,0,0,5.66,6.9,13.13,13.13,0,0,0,7.85,2.57,12.81,12.81,0,0,0,7-2.09,18.66,18.66,0,0,0,5.55-5.57,21.21,21.21,0,0,0,3.1-7.77l-4.56-.11q-4.92-.16-8.83-.16c-2.23,0-4.12.07-5.68.22l.05-1.66a41.14,41.14,0,0,0,9.76,1,70.71,70.71,0,0,0,9.07-.52,19.11,19.11,0,0,0,4-.68h0a3.38,3.38,0,0,0-.06.6l0,.11a15.17,15.17,0,0,1-.41,2.28,19.91,19.91,0,0,1-10.47,13.13A18.72,18.72,0,0,1,514.73,182.59Z"/></svg>